{
    "asset" : {
        "generator" : "Khronos glTF Blender I/O v1.8.19",
        "version" : "2.0"
    },
    "scene" : 0,
    "scenes" : [
        {
            "name" : "Scene",
            "nodes" : [
                0,
                1,
                2,
                3,
                4
            ]
        }
    ],
    "nodes" : [
        {
            "mesh" : 0,
            "name" : "Torus",
            "rotation" : [
                -0.8186408877372742,
                -0.4036974310874939,
                -0.3593607246875763,
                0.19420434534549713
            ],
            "scale" : [
                2.238687753677368,
                2.243093967437744,
                2.2348439693450928
            ],
            "translation" : [
                -0.5481972694396973,
                4.230367660522461,
                -9.521985054016113
            ]
        },
        {
            "mesh" : 1,
            "name" : "Cone",
            "rotation" : [
                0,
                -0.15064263343811035,
                0,
                0.988588273525238
            ],
            "scale" : [
                0.9556431770324707,
                0.9556431770324707,
                0.9556431770324707
            ],
            "translation" : [
                -9.374247550964355,
                0.3839458227157593,
                10.886198043823242
            ]
        },
        {
            "mesh" : 2,
            "name" : "Cone.001",
            "rotation" : [
                0,
                -0.15064263343811035,
                0,
                0.988588273525238
            ],
            "scale" : [
                0.488395094871521,
                0.488395094871521,
                0.488395094871521
            ],
            "translation" : [
                -0.6677365303039551,
                -0.29641032218933105,
                12.82467269897461
            ]
        },
        {
            "mesh" : 3,
            "name" : "Cone.002",
            "rotation" : [
                0,
                -0.15064263343811035,
                0,
                0.988588273525238
            ],
            "scale" : [
                1.0865418910980225,
                1.0865418910980225,
                1.0865418910980225
            ],
            "translation" : [
                -3.3783233165740967,
                3.539440631866455,
                -6.417513847351074
            ]
        },
        {
            "mesh" : 4,
            "name" : "Landscape.001",
            "rotation" : [
                0,
                -0.7093802094459534,
                0,
                0.7048260569572449
            ],
            "scale" : [
                -16.12911033630371,
                -16.12911033630371,
                -16.12911033630371
            ],
            "translation" : [
                -1.4960308074951172,
                -0.699257493019104,
                -0.3164186477661133
            ]
        }
    ],
    "materials" : [
        {
            "doubleSided" : true,
            "name" : "Material.003",
            "pbrMetallicRoughness" : {
                "baseColorFactor" : [
                    0.8000000715255737,
                    0.5631647109985352,
                    0,
                    1
                ],
                "roughnessFactor" : 0.13779526948928833
            }
        },
        {
            "doubleSided" : true,
            "name" : "Material.001",
            "pbrMetallicRoughness" : {
                "baseColorFactor" : [
                    0,
                    0.09850414097309113,
                    0.00032149202888831496,
                    1
                ],
                "metallicFactor" : 0,
                "roughnessFactor" : 0.5
            }
        },
        {
            "doubleSided" : true,
            "name" : "Material.002",
            "pbrMetallicRoughness" : {
                "baseColorFactor" : [
                    0.8000000715255737,
                    0.027116525918245316,
                    0.04173806682229042,
                    1
                ],
                "metallicFactor" : 0.4409448802471161,
                "roughnessFactor" : 0.19291338324546814
            }
        }
    ],
    "meshes" : [
        {
            "name" : "Torus",
            "primitives" : [
                {
                    "attributes" : {
                        "POSITION" : 0,
                        "NORMAL" : 1,
                        "TEXCOORD_0" : 2
                    },
                    "indices" : 3,
                    "material" : 0
                }
            ]
        },
        {
            "name" : "Cone",
            "primitives" : [
                {
                    "attributes" : {
                        "POSITION" : 4,
                        "NORMAL" : 5,
                        "TEXCOORD_0" : 6
                    },
                    "indices" : 7,
                    "material" : 1
                }
            ]
        },
        {
            "name" : "Cone.001",
            "primitives" : [
                {
                    "attributes" : {
                        "POSITION" : 8,
                        "NORMAL" : 9,
                        "TEXCOORD_0" : 10
                    },
                    "indices" : 7,
                    "material" : 1
                }
            ]
        },
        {
            "name" : "Cone.002",
            "primitives" : [
                {
                    "attributes" : {
                        "POSITION" : 11,
                        "NORMAL" : 12,
                        "TEXCOORD_0" : 13
                    },
                    "indices" : 7,
                    "material" : 1
                }
            ]
        },
        {
            "name" : "Landscape.001",
            "primitives" : [
                {
                    "attributes" : {
                        "POSITION" : 14,
                        "NORMAL" : 15
                    },
                    "indices" : 16,
                    "material" : 2
                }
            ]
        }
    ],
    "accessors" : [
        {
            "bufferView" : 0,
            "componentType" : 5126,
            "count" : 637,
            "max" : [
                1.25,
                0.25,
                1.25
            ],
            "min" : [
                -1.25,
                -0.25,
                -1.25
            ],
            "type" : "VEC3"
        },
        {
            "bufferView" : 1,
            "componentType" : 5126,
            "count" : 637,
            "type" : "VEC3"
        },
        {
            "bufferView" : 2,
            "componentType" : 5126,
            "count" : 637,
            "type" : "VEC2"
        },
        {
            "bufferView" : 3,
            "componentType" : 5123,
            "count" : 3456,
            "type" : "SCALAR"
        },
        {
            "bufferView" : 4,
            "componentType" : 5126,
            "count" : 65,
            "max" : [
                1,
                1,
                1
            ],
            "min" : [
                -1,
                -1,
                -1
            ],
            "type" : "VEC3"
        },
        {
            "bufferView" : 5,
            "componentType" : 5126,
            "count" : 65,
            "type" : "VEC3"
        },
        {
            "bufferView" : 6,
            "componentType" : 5126,
            "count" : 65,
            "type" : "VEC2"
        },
        {
            "bufferView" : 7,
            "componentType" : 5123,
            "count" : 186,
            "type" : "SCALAR"
        },
        {
            "bufferView" : 8,
            "componentType" : 5126,
            "count" : 65,
            "max" : [
                1,
                1,
                1
            ],
            "min" : [
                -1,
                -1,
                -1
            ],
            "type" : "VEC3"
        },
        {
            "bufferView" : 9,
            "componentType" : 5126,
            "count" : 65,
            "type" : "VEC3"
        },
        {
            "bufferView" : 10,
            "componentType" : 5126,
            "count" : 65,
            "type" : "VEC2"
        },
        {
            "bufferView" : 11,
            "componentType" : 5126,
            "count" : 65,
            "max" : [
                1,
                1,
                1
            ],
            "min" : [
                -1,
                -1,
                -1
            ],
            "type" : "VEC3"
        },
        {
            "bufferView" : 12,
            "componentType" : 5126,
            "count" : 65,
            "type" : "VEC3"
        },
        {
            "bufferView" : 13,
            "componentType" : 5126,
            "count" : 65,
            "type" : "VEC2"
        },
        {
            "bufferView" : 14,
            "componentType" : 5126,
            "count" : 16002,
            "max" : [
                0.9842519760131836,
                0.10000014305114746,
                0.9842519760131836
            ],
            "min" : [
                -1,
                -0.25,
                -0.9842519760131836
            ],
            "type" : "VEC3"
        },
        {
            "bufferView" : 15,
            "componentType" : 5126,
            "count" : 16002,
            "type" : "VEC3"
        },
        {
            "bufferView" : 16,
            "componentType" : 5123,
            "count" : 94500,
            "type" : "SCALAR"
        }
    ],
    "bufferViews" : [
        {
            "buffer" : 0,
            "byteLength" : 7644,
            "byteOffset" : 0
        },
        {
            "buffer" : 0,
            "byteLength" : 7644,
            "byteOffset" : 7644
        },
        {
            "buffer" : 0,
            "byteLength" : 5096,
            "byteOffset" : 15288
        },
        {
            "buffer" : 0,
            "byteLength" : 6912,
            "byteOffset" : 20384
        },
        {
            "buffer" : 0,
            "byteLength" : 780,
            "byteOffset" : 27296
        },
        {
            "buffer" : 0,
            "byteLength" : 780,
            "byteOffset" : 28076
        },
        {
            "buffer" : 0,
            "byteLength" : 520,
            "byteOffset" : 28856
        },
        {
            "buffer" : 0,
            "byteLength" : 372,
            "byteOffset" : 29376
        },
        {
            "buffer" : 0,
            "byteLength" : 780,
            "byteOffset" : 29748
        },
        {
            "buffer" : 0,
            "byteLength" : 780,
            "byteOffset" : 30528
        },
        {
            "buffer" : 0,
            "byteLength" : 520,
            "byteOffset" : 31308
        },
        {
            "buffer" : 0,
            "byteLength" : 780,
            "byteOffset" : 31828
        },
        {
            "buffer" : 0,
            "byteLength" : 780,
            "byteOffset" : 32608
        },
        {
            "buffer" : 0,
            "byteLength" : 520,
            "byteOffset" : 33388
        },
        {
            "buffer" : 0,
            "byteLength" : 192024,
            "byteOffset" : 33908
        },
        {
            "buffer" : 0,
            "byteLength" : 192024,
            "byteOffset" : 225932
        },
        {
            "buffer" : 0,
            "byteLength" : 189000,
            "byteOffset" : 417956
        }
    ],
    "buffers" : [
        {
            "byteLength" : 606956,
            "uri" : "data:application/octet-stream;base64,"
        }
    ]
}
